<?xml version="1.0" encoding="UTF-8" standalone="no"?>
<!DOCTYPE svg PUBLIC "-//W3C//DTD SVG 1.1//EN" "http://www.w3.org/Graphics/SVG/1.1/DTD/svg11.dtd">
<svg width="100%" height="100%" viewBox="0 0 42 41" version="1.1" xmlns="http://www.w3.org/2000/svg" xmlns:xlink="http://www.w3.org/1999/xlink" xml:space="preserve" xmlns:serif="http://www.serif.com/" style="fill-rule:evenodd;clip-rule:evenodd;stroke-linejoin:round;stroke-miterlimit:2;">
    <g id="Layer_2">
        <g id="Layer_1-2">
            <g id="Fb1">
                <path d="M41.16,20.58C41.153,30.661 33.746,39.329 23.79,40.91L23.79,26.53L28.59,26.53L29.5,20.53L23.79,20.53L23.79,16.72C23.79,15.09 24.59,13.5 27.15,13.5L29.74,13.5L29.74,8.44C28.218,8.195 26.681,8.061 25.14,8.04C20.43,8.04 17.36,10.89 17.36,16.04L17.36,20.58L12.14,20.58L12.14,26.58L17.36,26.58L17.36,40.91C7.405,39.333 0,30.663 0,20.583C0,9.294 9.29,0.003 20.58,0.003C31.869,0.003 41.158,9.291 41.16,20.58Z" style="fill:white;fill-rule:nonzero;"/>
            </g>
        </g>
    </g>
</svg>
