<?xml version="1.0" encoding="UTF-8" standalone="no"?>
<!DOCTYPE svg PUBLIC "-//W3C//DTD SVG 1.1//EN" "http://www.w3.org/Graphics/SVG/1.1/DTD/svg11.dtd">
<svg width="100%" height="100%" viewBox="0 0 42 42" version="1.1" xmlns="http://www.w3.org/2000/svg" xmlns:xlink="http://www.w3.org/1999/xlink" xml:space="preserve" xmlns:serif="http://www.serif.com/" style="fill-rule:evenodd;clip-rule:evenodd;stroke-linejoin:round;stroke-miterlimit:2;">
    <g id="Layer_2">
        <g id="Layer_1-2">
            <g id="insta1">
                <path d="M24.48,20.55C24.48,22.64 22.76,24.36 20.67,24.36C18.58,24.36 16.86,22.64 16.86,20.55C16.86,18.46 18.58,16.74 20.67,16.74L20.68,16.74C22.765,16.74 24.48,18.455 24.48,20.54C24.48,20.543 24.48,20.547 24.48,20.55Z" style="fill:white;fill-rule:nonzero;"/>
                <path d="M25.39,10.75L15.76,10.75C13.017,10.75 10.76,13.007 10.76,15.75L10.76,25.39C10.76,28.133 13.017,30.39 15.76,30.39L25.39,30.39C28.133,30.39 30.39,28.133 30.39,25.39L30.39,15.73C30.379,12.995 28.125,10.75 25.39,10.75ZM20.68,26.49C17.421,26.49 14.74,23.809 14.74,20.55C14.74,17.291 17.421,14.61 20.68,14.61C23.939,14.61 26.62,17.291 26.62,20.55C26.588,23.796 23.926,26.458 20.68,26.49ZM27,15.62C26.997,15.62 26.993,15.62 26.99,15.62C26.211,15.62 25.57,14.979 25.57,14.2C25.57,13.421 26.211,12.78 26.99,12.78C27.769,12.78 28.41,13.421 28.41,14.2C28.41,14.203 28.41,14.207 28.41,14.21C28.41,14.984 27.774,15.62 27,15.62Z" style="fill:white;fill-rule:nonzero;"/>
                <path d="M20.58,0C9.29,0 -0,9.29 0,20.58C0,31.87 9.29,41.16 20.58,41.16C31.87,41.16 41.16,31.87 41.16,20.58C41.16,20.577 41.16,20.573 41.16,20.57C41.16,9.286 31.874,-0 20.59,-0C20.587,-0 20.583,-0 20.58,-0ZM32.64,25.37C32.635,29.343 29.363,32.61 25.39,32.61L15.76,32.61C11.787,32.61 8.515,29.343 8.51,25.37L8.51,15.73C8.515,11.755 11.785,8.485 15.76,8.48L25.39,8.48C29.365,8.485 32.635,11.755 32.64,15.73L32.64,25.37Z" style="fill:white;fill-rule:nonzero;"/>
            </g>
        </g>
    </g>
</svg>
