<?xml version="1.0" encoding="UTF-8" standalone="no"?>
<!DOCTYPE svg PUBLIC "-//W3C//DTD SVG 1.1//EN" "http://www.w3.org/Graphics/SVG/1.1/DTD/svg11.dtd">
<svg width="100%" height="100%" viewBox="0 0 42 42" version="1.1" xmlns="http://www.w3.org/2000/svg" xmlns:xlink="http://www.w3.org/1999/xlink" xml:space="preserve" xmlns:serif="http://www.serif.com/" style="fill-rule:evenodd;clip-rule:evenodd;stroke-linejoin:round;stroke-miterlimit:2;">
    <g id="Layer_2">
        <g id="Layer_1-2">
            <g id="In1">
                <path d="M35.13,6C31.272,2.129 26.026,-0.05 20.56,-0.05C9.276,-0.05 -0.01,9.236 -0.01,20.52C-0.01,31.805 9.276,41.09 20.56,41.09C31.833,41.09 41.114,31.823 41.13,20.55C41.146,15.097 38.985,9.857 35.13,6ZM15.51,29.75L11.25,29.75L11.25,16L15.51,16L15.51,29.75ZM13.36,14.19C13.35,14.19 13.34,14.19 13.33,14.19C11.937,14.19 10.79,13.044 10.79,11.65C10.79,10.257 11.937,9.11 13.33,9.11C14.723,9.11 15.87,10.257 15.87,11.65C15.876,13.034 14.744,14.179 13.36,14.19ZM31.47,29.75L27.23,29.75L27.23,22.53C27.23,20.53 26.48,19.44 24.91,19.44C23.34,19.44 22.31,20.59 22.31,22.53L22.31,29.75L18.23,29.75L18.23,16L22.31,16L22.31,17.85C23.198,16.419 24.776,15.555 26.46,15.58C29.38,15.58 31.46,17.36 31.46,21.05L31.47,29.75Z" style="fill:white;fill-rule:nonzero;"/>
            </g>
        </g>
    </g>
</svg>
