<?xml version="1.0" encoding="UTF-8" standalone="no"?>
<!DOCTYPE svg PUBLIC "-//W3C//DTD SVG 1.1//EN" "http://www.w3.org/Graphics/SVG/1.1/DTD/svg11.dtd">
<svg width="100%" height="100%" viewBox="0 0 42 42" version="1.1" xmlns="http://www.w3.org/2000/svg" xmlns:xlink="http://www.w3.org/1999/xlink" xml:space="preserve" xmlns:serif="http://www.serif.com/" style="fill-rule:evenodd;clip-rule:evenodd;stroke-linejoin:round;stroke-miterlimit:2;">
    <g id="Layer_2">
        <g id="Layer_1-2">
            <g id="Tw1">
                <path d="M20.58,0C9.29,0 -0,9.29 0,20.58C0,31.87 9.29,41.16 20.58,41.16C31.87,41.16 41.16,31.87 41.16,20.58C41.16,20.577 41.16,20.573 41.16,20.57C41.16,9.286 31.874,-0 20.59,-0C20.587,-0 20.583,-0 20.58,-0ZM32,13.55C32.002,13.677 31.959,13.801 31.88,13.9C31.379,14.608 30.775,15.238 30.09,15.77C29.99,15.85 29.81,15.93 29.81,16.07C29.81,19.78 28.87,23.48 26.17,26.16C22.644,29.451 17.622,30.63 13,29.25C12.118,29.005 11.263,28.67 10.45,28.25C10.18,28.1 9.92,27.95 9.66,27.77C9.59,27.72 9.54,27.67 9.6,27.64C9.66,27.61 9.7,27.64 9.9,27.64C11.194,27.749 12.496,27.582 13.72,27.15C14.654,26.922 15.517,26.464 16.23,25.82C16.06,25.82 15.9,25.82 15.73,25.75C14.055,25.43 12.66,24.263 12.05,22.67C12.05,22.55 12.05,22.48 12.18,22.51C12.788,22.576 13.403,22.542 14,22.41C13.797,22.368 13.599,22.304 13.41,22.22C11.823,21.584 10.701,20.135 10.48,18.44C10.465,18.264 10.465,18.086 10.48,17.91C10.48,17.79 10.55,17.75 10.66,17.82C11.213,18.107 11.819,18.277 12.44,18.32C12.24,18.16 12.05,17.99 11.87,17.82C10.414,16.356 10.087,14.096 11.07,12.28C11.16,12.15 11.22,12.15 11.33,12.28C13.702,14.943 16.984,16.627 20.53,17C20.62,17 20.63,17 20.62,16.89C20.506,16.25 20.523,15.593 20.67,14.96C20.834,14.29 21.144,13.665 21.58,13.13C22.856,11.496 25.068,10.888 27,11.64C27.473,11.836 27.912,12.106 28.3,12.44C28.385,12.515 28.465,12.595 28.54,12.68C28.583,12.733 28.656,12.754 28.72,12.73C29.656,12.513 30.56,12.177 31.41,11.73C31.448,11.71 31.492,11.71 31.53,11.73C31.568,11.75 31.53,11.81 31.53,11.85C31.365,12.35 31.107,12.815 30.77,13.22C30.56,13.49 30.02,14.15 29.66,14.22C30.467,14.093 31.253,13.861 32,13.53C32.09,13.53 32.09,13.47 32.09,13.53L32,13.55Z" style="fill:white;fill-rule:nonzero;"/>
            </g>
        </g>
    </g>
</svg>
