<?xml version="1.0" encoding="UTF-8" standalone="no"?>
<!DOCTYPE svg PUBLIC "-//W3C//DTD SVG 1.1//EN" "http://www.w3.org/Graphics/SVG/1.1/DTD/svg11.dtd">
<svg width="100%" height="100%" viewBox="0 0 41 41" version="1.1" xmlns="http://www.w3.org/2000/svg" xmlns:xlink="http://www.w3.org/1999/xlink" xml:space="preserve" xmlns:serif="http://www.serif.com/" style="fill-rule:evenodd;clip-rule:evenodd;stroke-linejoin:round;stroke-miterlimit:2;">
    <g id="Layer_2">
        <path d="M20.46,0C31.752,0 40.92,9.168 40.92,20.46C40.92,31.752 31.752,40.92 20.46,40.92C9.168,40.92 0,31.752 0,20.46C0,9.168 9.168,0 20.46,0ZM13.36,21.47L6.81,21.47C7.254,27.422 11.539,32.43 17.35,33.79C15.07,31.62 13.53,27.06 13.36,21.47ZM27.55,21.47C27.39,27.06 25.84,31.62 23.55,33.79C29.365,32.434 33.655,27.425 34.1,21.47L27.55,21.47ZM15.39,21.47C15.62,28.39 18.16,33.13 20.46,33.13C22.76,33.13 25.29,28.39 25.52,21.47L15.39,21.47ZM13.36,19.44C13.53,13.85 15.07,9.29 17.36,7.13C11.545,8.479 7.253,13.487 6.81,19.44L13.36,19.44ZM20.46,7.78C18.16,7.78 15.62,12.52 15.39,19.44L25.52,19.44C25.29,12.52 22.75,7.78 20.46,7.78ZM27.55,19.44L34.1,19.44C33.658,13.49 29.371,8.483 23.56,7.13C25.84,9.29 27.39,13.85 27.55,19.44Z" style="fill:white;"/>
    </g>
</svg>
