<?xml version="1.0" encoding="UTF-8" standalone="no"?>
<!DOCTYPE svg PUBLIC "-//W3C//DTD SVG 1.1//EN" "http://www.w3.org/Graphics/SVG/1.1/DTD/svg11.dtd">
<svg width="100%" height="100%" viewBox="0 0 42 42" version="1.1" xmlns="http://www.w3.org/2000/svg" xmlns:xlink="http://www.w3.org/1999/xlink" xml:space="preserve" xmlns:serif="http://www.serif.com/" style="fill-rule:evenodd;clip-rule:evenodd;stroke-linejoin:round;stroke-miterlimit:2;">
    <g id="Layer_2">
        <g id="Layer_1-2">
            <g id="YT1">
                <path d="M24.16,21L18.5,23.8C18.28,23.92 17.5,23.8 17.5,23.51L17.5,17.77C17.5,17.52 18.26,17.36 18.5,17.48L23.93,20.43C24.16,20.56 24.39,20.89 24.16,21Z" style="fill:white;fill-rule:nonzero;"/>
                <path d="M20.58,0C9.29,0 -0,9.29 0,20.58C0,31.87 9.29,41.16 20.58,41.16C31.87,41.16 41.16,31.87 41.16,20.58C41.16,20.577 41.16,20.573 41.16,20.57C41.16,9.286 31.874,-0 20.59,-0C20.587,-0 20.583,-0 20.58,-0ZM31.58,23.52C31.547,26.24 29.3,28.46 26.58,28.46L14,28.46C11.29,28.46 9.06,26.23 9.06,23.52L9.06,17.64C9.06,14.93 11.29,12.7 14,12.7L26.65,12.7C29.37,12.7 31.617,14.92 31.65,17.64L31.58,23.52Z" style="fill:white;fill-rule:nonzero;"/>
            </g>
        </g>
    </g>
</svg>
