<?xml version="1.0" encoding="utf-8"?>
<!-- Generator: Adobe Illustrator 25.1.0, SVG Export Plug-In . SVG Version: 6.00 Build 0)  -->
<svg version="1.1" id="Layer_1" xmlns="http://www.w3.org/2000/svg" xmlns:xlink="http://www.w3.org/1999/xlink" x="0px" y="0px"
	 viewBox="0 0 156.3 39.7" style="enable-background:new 0 0 156.3 39.7;" xml:space="preserve">
<style type="text/css">
	.st0{fill:#FFFFFF;}
</style>
<g>
	<path class="st0" d="M0,19.8c-0.1-1.9,0.4-3.8,1.3-5.5c0.8-1.5,2-2.7,3.5-3.5s3.1-1.2,4.8-1.2c2.7-0.1,5.3,1.3,6.7,3.7V0H21v29.7
		h-4.7v-3.3c-1.4,2.4-4,3.8-6.7,3.7c-1.7,0-3.3-0.4-4.8-1.2s-2.7-2-3.5-3.5C0.4,23.6-0.1,21.7,0,19.8z M4.8,19.8
		c-0.1,1.7,0.5,3.4,1.8,4.6c1.1,1.1,2.6,1.7,4.2,1.7c0.9,0,1.8-0.3,2.6-0.7c0.9-0.5,1.6-1.2,2.1-2.1c0.6-1,0.9-2.2,0.9-3.4
		s-0.3-2.4-0.9-3.4c-0.5-0.9-1.3-1.6-2.1-2.1c-0.8-0.5-1.7-0.7-2.6-0.7c-1.5,0-3,0.6-4.2,1.7C5.3,16.4,4.7,18.1,4.8,19.8z"/>
	<path class="st0" d="M32,30.1c-1.9,0-3.7-0.4-5.3-1.3c-1.5-0.8-2.7-2.1-3.5-3.6c-0.9-1.7-1.3-3.5-1.2-5.4c-0.1-1.9,0.4-3.7,1.2-5.4
		c0.8-1.5,2.1-2.8,3.6-3.6c1.7-0.9,3.5-1.3,5.4-1.3c2.7-0.2,5.3,0.8,7.3,2.7c1.8,2,2.7,4.7,2.6,7.4c0,0.2,0,0.5,0,0.8s0,0.4,0,0.5
		H26.7c0.1,1.5,0.7,2.9,1.7,4c1,1,2.4,1.5,3.8,1.4c2.3,0.1,4.5-1.1,5.7-3.1l4,1.6C39.8,28.3,36.5,30.1,32,30.1z M32.2,13.1
		c-3,0-4.8,1.5-5.4,4.6H37c0-1.3-0.5-2.5-1.5-3.4C34.6,13.5,33.4,13,32.2,13.1L32.2,13.1z"/>
	<path class="st0" d="M45.7,23.2c0.8,0.9,1.8,1.8,2.9,2.4c0.9,0.5,1.9,0.8,2.9,0.8c0.7,0,1.4-0.2,1.9-0.6c0.5-0.4,0.7-0.9,0.7-1.5
		c0-0.8-0.5-1.6-1.2-2c-1-0.6-2.1-1.1-3.2-1.4c-0.9-0.4-1.8-0.8-2.6-1.2s-1.6-1.1-2.1-1.8C44.4,17,44.1,16,44.2,15
		c0-1.1,0.3-2.1,1-3c0.7-0.8,1.5-1.4,2.5-1.8c1.1-0.4,2.2-0.6,3.3-0.6c1.5,0,3,0.3,4.4,1c1.2,0.6,2.3,1.4,3.2,2.5L56,15.8
		c-0.7-0.8-1.5-1.4-2.4-1.9s-1.9-0.7-2.8-0.8c-0.6,0-1.1,0.1-1.6,0.4c-0.4,0.3-0.7,0.7-0.6,1.2c0,0.8,0.5,1.5,1.2,1.8
		c1,0.5,2,1,3.1,1.4c1,0.4,2,0.9,3,1.4c0.9,0.5,1.6,1.1,2.2,1.9c0.6,0.9,0.9,1.9,0.8,2.9c0.1,1.7-0.6,3.3-1.9,4.5
		c-1.4,1.2-3.3,1.8-5.1,1.7c-1.9,0-3.7-0.4-5.3-1.3c-1.4-0.8-2.6-1.8-3.5-3L45.7,23.2z"/>
	<rect x="59.9" y="10.6" class="st0" width="4.5" height="19"/>
	<path class="st0" d="M65.8,31h4.6c0,1.3,0.6,2.5,1.6,3.3c1.1,1,2.5,1.4,4,1.3c1,0,1.9-0.2,2.8-0.7s1.7-1.2,2.2-2.1
		c0.6-1.1,0.9-2.4,0.8-3.6v-3c-1.4,2.3-4,3.7-6.7,3.6c-1.7,0-3.3-0.4-4.8-1.2s-2.7-2-3.5-3.5c-0.9-1.7-1.4-3.6-1.3-5.5
		c-0.1-1.9,0.4-3.8,1.3-5.5c0.8-1.5,2-2.7,3.5-3.5s3.1-1.2,4.8-1.2c2.7-0.1,5.3,1.3,6.7,3.6V9.8h4.5v19.3c0.1,2.1-0.4,4.1-1.4,5.9
		c-0.9,1.5-2.2,2.7-3.8,3.5c-1.6,0.7-3.3,1.1-5,1.1c-3.2,0-5.7-0.8-7.5-2.4C66.9,35.7,65.9,33.4,65.8,31z M70.3,19.7
		c-0.1,1.7,0.5,3.4,1.8,4.5c1.1,1,2.6,1.6,4.2,1.6c0.9,0,1.8-0.2,2.6-0.7c0.9-0.5,1.6-1.2,2.1-2c0.6-1,0.9-2.2,0.9-3.4
		s-0.3-2.3-0.9-3.3c-0.5-0.9-1.3-1.6-2.1-2.1c-0.8-0.5-1.7-0.7-2.6-0.7c-1.5,0-3,0.6-4.2,1.6C70.8,16.4,70.2,18,70.3,19.7z"/>
	<path class="st0" d="M99.9,17.7c0-2.9-1.2-4.4-3.6-4.4c-1.2,0-2.3,0.4-3.2,1.2c-0.8,0.9-1.3,2-1.2,3.2v12h-4.6V10h4.6v3
		c1.1-2.3,3.5-3.6,6-3.5c1.9-0.1,3.8,0.6,5.1,2c1.2,1.6,1.9,3.6,1.8,5.6v12.6H100L99.9,17.7z"/>
	<path class="st0" d="M118.4,17c0.1-1.4-0.3-2.8-1.1-3.9c-0.9-1-2.2-1.5-3.5-1.4c-1.1,0-2.1,0.3-3,0.8s-1.6,1.3-2.1,2.2
		c-0.5,0.9-0.7,2-0.7,3v12h-2.2V0h2.2v13.9c0.5-1.2,1.4-2.3,2.5-3.1c1.1-0.8,2.4-1.2,3.8-1.2c1.8-0.1,3.5,0.6,4.7,1.9
		c1.2,1.5,1.8,3.4,1.6,5.3v12.9h-2.2V17z"/>
	<path class="st0" d="M123.7,22.5c-0.1,1.4,0.3,2.9,1.1,4.1c0.9,1,2.2,1.6,3.5,1.5c1.1,0,2.1-0.3,3-0.8s1.6-1.3,2.1-2.2s0.7-2,0.7-3
		v-12h2.2v19.7h-2.1v-4.1c-0.5,1.3-1.3,2.5-2.4,3.3c-1.1,0.8-2.5,1.2-3.9,1.2c-1.8,0.1-3.5-0.6-4.7-2c-1.2-1.5-1.7-3.4-1.6-5.4V10
		h2.2L123.7,22.5z"/>
	<path class="st0" d="M156.3,19.8c0,1.9-0.4,3.8-1.3,5.5c-0.8,1.5-2,2.7-3.4,3.5c-1.5,0.8-3.1,1.3-4.8,1.2c-1.6,0-3.1-0.4-4.4-1.4
		c-1.3-0.9-2.3-2.2-2.9-3.7v4.6h-2.2V0h2.2v14.6c0.6-1.5,1.6-2.7,2.9-3.7c1.3-0.9,2.8-1.4,4.4-1.4c1.7,0,3.3,0.4,4.8,1.2
		c1.4,0.8,2.6,2.1,3.4,3.5C155.9,16,156.4,17.9,156.3,19.8z M154.1,19.8c0-1.5-0.3-3-1-4.4c-0.6-1.2-1.6-2.1-2.7-2.8
		c-1.2-0.7-2.5-1-3.8-1c-1.2,0-2.4,0.4-3.4,1.1c-1.1,0.7-2,1.7-2.6,2.9c-1.3,2.6-1.3,5.7,0,8.4c0.6,1.2,1.5,2.2,2.6,2.9
		c1,0.7,2.2,1.1,3.4,1.1c1.3,0,2.7-0.3,3.8-1c1.2-0.7,2.1-1.6,2.7-2.8C153.8,22.8,154.1,21.3,154.1,19.8z"/>
</g>
</svg>
