<?xml version="1.0" encoding="UTF-8" standalone="no"?>
<!DOCTYPE svg PUBLIC "-//W3C//DTD SVG 1.1//EN" "http://www.w3.org/Graphics/SVG/1.1/DTD/svg11.dtd">
<svg width="100%" height="100%" viewBox="0 0 256 246" version="1.1" xmlns="http://www.w3.org/2000/svg" xmlns:xlink="http://www.w3.org/1999/xlink" xml:space="preserve" xmlns:serif="http://www.serif.com/" style="fill-rule:evenodd;clip-rule:evenodd;stroke-linejoin:round;stroke-miterlimit:2;">
    <g transform="matrix(9.27551,0,0,9.27551,-2703.64,-23974.4)">
        <g id="edu-icon">
            <g>
                <g transform="matrix(1,0,0,1,-0.320034,3.11874)">
                    <path d="M306.161,2586.56C307.22,2586.56 308.082,2587.42 308.082,2588.48C308.082,2589.54 307.22,2590.4 306.161,2590.4C305.101,2590.4 304.239,2589.54 304.239,2588.48C304.239,2587.42 305.101,2586.56 306.161,2586.56ZM306.161,2589.73C306.847,2589.73 307.406,2589.17 307.406,2588.48C307.406,2587.8 306.847,2587.24 306.161,2587.24C305.474,2587.24 304.915,2587.8 304.915,2588.48C304.915,2589.17 305.474,2589.73 306.161,2589.73Z" style="fill:white;"/>
                    <path d="M313.501,2596.24L313.506,2596.24C313.57,2596.19 313.611,2596.11 313.611,2596.02L313.611,2592.13C313.611,2592.03 313.562,2591.94 313.482,2591.89C313.402,2591.84 313.302,2591.84 313.217,2591.88L306.392,2595.28C306.319,2595.32 306.24,2595.34 306.161,2595.34C306.081,2595.34 306.002,2595.32 305.929,2595.28L299.104,2591.88C299.02,2591.84 298.919,2591.84 298.839,2591.89C298.759,2591.94 298.71,2592.03 298.71,2592.13L298.71,2594.68L298.204,2594.55C298.164,2594.54 298.122,2594.54 298.081,2594.55L297.672,2594.64L297.672,2591.34C297.672,2591.23 297.613,2591.14 297.521,2591.09L293.209,2588.95C293.033,2588.86 292.922,2588.68 292.921,2588.48C292.921,2588.29 293.032,2588.11 293.208,2588.02L305.928,2581.63C306.074,2581.56 306.247,2581.56 306.394,2581.63L319.114,2588.02C319.29,2588.11 319.4,2588.29 319.4,2588.48C319.4,2588.68 319.288,2588.86 319.112,2588.95L317.968,2589.52C317.875,2589.56 317.817,2589.66 317.817,2589.76L317.817,2598.91C317.817,2599.03 317.889,2599.13 317.998,2599.17C318.814,2599.46 319.4,2600.24 319.4,2601.15C319.4,2601.99 318.908,2602.71 318.199,2603.05C318.075,2603.11 318.015,2603.25 318.057,2603.38L319.374,2607.37C319.484,2607.71 319.235,2608.05 318.881,2608.05L315.714,2608.05C315.361,2608.05 315.11,2607.71 315.221,2607.37L316.537,2603.38C316.58,2603.25 316.519,2603.11 316.396,2603.05C315.686,2602.71 315.194,2601.99 315.194,2601.15C315.194,2600.24 315.781,2599.46 316.597,2599.17C316.705,2599.13 316.778,2599.03 316.778,2598.91L316.778,2590.55C316.778,2590.45 316.729,2590.37 316.649,2590.32C316.569,2590.27 316.469,2590.26 316.384,2590.3L314.801,2591.09C314.708,2591.14 314.65,2591.23 314.65,2591.34L314.65,2596.4C314.65,2596.55 314.586,2596.69 314.474,2596.79C314.32,2596.92 310.681,2600.09 306.161,2600.09C305.698,2600.09 305.245,2600.05 304.805,2599.99C304.804,2599.99 304.36,2598.86 304.36,2598.86C304.94,2598.98 305.543,2599.05 306.161,2599.05C309.593,2599.05 312.594,2596.95 313.501,2596.24ZM316.55,2606.66C316.523,2606.74 316.537,2606.83 316.588,2606.9C316.639,2606.97 316.721,2607.02 316.808,2607.02L317.786,2607.02C317.873,2607.02 317.955,2606.97 318.007,2606.9C318.058,2606.83 318.072,2606.74 318.045,2606.66L317.556,2605.18C317.519,2605.06 317.415,2604.99 317.297,2604.99C317.18,2604.99 317.075,2605.06 317.039,2605.18L316.55,2606.66ZM317.297,2602.21C317.884,2602.21 318.361,2601.74 318.361,2601.15C318.361,2600.56 317.884,2600.09 317.297,2600.09C316.711,2600.09 316.233,2600.56 316.233,2601.15C316.233,2601.74 316.711,2602.21 317.297,2602.21ZM313.285,2596.29L313.296,2596.29L313.285,2596.29ZM313.123,2596.19L313.122,2596.19L313.123,2596.19ZM306.039,2594.18C306.116,2594.21 306.206,2594.21 306.282,2594.18L317.232,2588.72C317.324,2588.68 317.382,2588.58 317.383,2588.48C317.383,2588.38 317.325,2588.28 317.233,2588.24L306.283,2582.74C306.206,2582.7 306.115,2582.7 306.039,2582.74L295.089,2588.24C294.997,2588.28 294.939,2588.38 294.939,2588.48C294.939,2588.58 294.997,2588.68 295.09,2588.72L306.039,2594.18Z" style="fill:white;"/>
                </g>
                <g transform="matrix(0.0174151,0,0,0.0174151,283.755,2563.32)">
                    <path d="M819.433,1923.09C612.009,1923.09 443.607,2091.49 443.607,2298.91C443.607,2506.34 612.009,2674.74 819.433,2674.74C1026.86,2674.74 1195.26,2506.34 1195.26,2298.91C1195.26,2091.49 1026.86,1923.09 819.433,1923.09ZM819.433,1987.42C991.348,1987.42 1130.92,2127 1130.92,2298.91C1130.92,2470.83 991.348,2610.4 819.433,2610.4C647.518,2610.4 507.945,2470.83 507.945,2298.91C507.945,2127 647.518,1987.42 819.433,1987.42Z" style="fill:white;"/>
                </g>
            </g>
            <g transform="matrix(0.0156931,0,0,0.0156931,284.848,2566.61)">
                <g transform="matrix(0.834254,0,0,0.834254,258.501,1041.82)">
                    <path d="M653.917,1303.38L653.917,1813.23C653.917,1836.84 673.091,1856.02 696.708,1856.02C720.325,1856.02 739.499,1836.84 739.499,1813.23L739.499,1303.38C739.499,1279.76 720.325,1260.58 696.708,1260.58C673.091,1260.58 653.917,1279.76 653.917,1303.38Z" style="fill:white;"/>
                </g>
                <g transform="matrix(5.10833e-17,0.834254,-0.834254,5.10833e-17,2139.75,1760.61)">
                    <path d="M653.917,1303.38L653.917,1813.23C653.917,1836.84 673.091,1856.02 696.708,1856.02C720.325,1856.02 739.499,1836.84 739.499,1813.23L739.499,1303.38C739.499,1279.76 720.325,1260.58 696.708,1260.58C673.091,1260.58 653.917,1279.76 653.917,1303.38Z" style="fill:white;"/>
                </g>
            </g>
        </g>
    </g>
</svg>
