<?xml version="1.0" encoding="UTF-8" standalone="no"?>
<!DOCTYPE svg PUBLIC "-//W3C//DTD SVG 1.1//EN" "http://www.w3.org/Graphics/SVG/1.1/DTD/svg11.dtd">
<svg width="100%" height="100%" viewBox="0 0 256 232" version="1.1" xmlns="http://www.w3.org/2000/svg" xmlns:xlink="http://www.w3.org/1999/xlink" xml:space="preserve" xmlns:serif="http://www.serif.com/" style="fill-rule:evenodd;clip-rule:evenodd;stroke-linejoin:round;stroke-miterlimit:2;">
    <g transform="matrix(0.191222,0,0,0.191222,-113.813,-349.36)">
        <g id="exp-icon">
            <path d="M738.321,2516.69L738.321,2076.03C738.321,2021.08 783.005,1976.4 837.957,1976.39L1087.04,1976.39L1087.04,1926.58C1087.04,1871.63 1131.73,1826.94 1186.68,1826.94L1485.58,1826.94C1540.53,1826.94 1585.22,1871.63 1585.22,1926.58L1585.22,1976.4L1834.3,1976.4C1889.25,1976.4 1933.94,2021.08 1933.94,2076.03L1933.94,2723.66C1933.94,2778.61 1889.25,2823.29 1834.31,2823.29L1144.45,2823.29L1149.85,2801.02L1158.9,2773.47L1834.31,2773.47C1861.77,2773.47 1884.12,2751.12 1884.12,2723.66L1884.12,2361.08C1869.41,2369.66 1852.54,2374.94 1834.31,2374.94L1435.77,2374.94L1435.77,2449.66C1435.77,2463.43 1424.63,2474.57 1410.86,2474.57L1261.41,2474.57C1247.64,2474.57 1236.5,2463.43 1236.5,2449.66L1236.5,2374.94L837.957,2374.94C819.728,2374.94 802.854,2369.66 788.14,2361.08L788.14,2502.34L759.87,2502.34L738.321,2516.69ZM1286.31,2424.75L1286.31,2325.12L1385.95,2325.12L1385.95,2424.75L1286.31,2424.75ZM1884.12,2275.3C1884.12,2302.76 1861.77,2325.12 1834.31,2325.12L1435.77,2325.12L1435.77,2300.21C1435.77,2286.44 1424.62,2275.3 1410.86,2275.3L1261.4,2275.3C1247.63,2275.3 1236.49,2286.44 1236.49,2300.21L1236.49,2325.12L837.957,2325.12C810.495,2325.12 788.14,2302.76 788.14,2275.3L788.14,2076.03C788.14,2048.57 810.495,2026.22 837.957,2026.22L1834.31,2026.22C1861.77,2026.22 1884.12,2048.57 1884.12,2076.03L1884.12,2275.3ZM1136.86,1926.58C1136.86,1899.12 1159.22,1876.76 1186.68,1876.76L1485.58,1876.76C1513.04,1876.76 1535.4,1899.12 1535.4,1926.58L1535.4,1976.39L1136.86,1976.39L1136.86,1926.58Z" style="fill:white;"/>
            <g transform="matrix(0.777152,0,0,0.777152,250.434,957.811)">
                <path d="M819.433,1923.09C612.009,1923.09 443.607,2091.49 443.607,2298.91C443.607,2506.34 612.009,2674.74 819.433,2674.74C1026.86,2674.74 1195.26,2506.34 1195.26,2298.91C1195.26,2091.49 1026.86,1923.09 819.433,1923.09ZM819.433,1987.42C991.348,1987.42 1130.92,2127 1130.92,2298.91C1130.92,2470.83 991.348,2610.4 819.433,2610.4C647.518,2610.4 507.945,2470.83 507.945,2298.91C507.945,2127 647.518,1987.42 819.433,1987.42Z" style="fill:white;"/>
            </g>
            <g transform="matrix(0.700307,0,0,0.700307,299.187,1104.4)">
                <g transform="matrix(0.834254,0,0,0.834254,258.501,1041.82)">
                    <path d="M653.917,1303.38L653.917,1813.23C653.917,1836.84 673.091,1856.02 696.708,1856.02C720.325,1856.02 739.499,1836.84 739.499,1813.23L739.499,1303.38C739.499,1279.76 720.325,1260.58 696.708,1260.58C673.091,1260.58 653.917,1279.76 653.917,1303.38Z" style="fill:white;"/>
                </g>
                <g transform="matrix(5.10833e-17,0.834254,-0.834254,5.10833e-17,2139.75,1760.61)">
                    <path d="M653.917,1303.38L653.917,1813.23C653.917,1836.84 673.091,1856.02 696.708,1856.02C720.325,1856.02 739.499,1836.84 739.499,1813.23L739.499,1303.38C739.499,1279.76 720.325,1260.58 696.708,1260.58C673.091,1260.58 653.917,1279.76 653.917,1303.38Z" style="fill:white;"/>
                </g>
            </g>
        </g>
    </g>
</svg>
