<?xml version="1.0" encoding="UTF-8" standalone="no"?>
<!DOCTYPE svg PUBLIC "-//W3C//DTD SVG 1.1//EN" "http://www.w3.org/Graphics/SVG/1.1/DTD/svg11.dtd">
<svg width="100%" height="100%" viewBox="0 0 56 56" version="1.1" xmlns="http://www.w3.org/2000/svg" xmlns:xlink="http://www.w3.org/1999/xlink" xml:space="preserve" xmlns:serif="http://www.serif.com/" style="fill-rule:evenodd;clip-rule:evenodd;stroke-linejoin:round;stroke-miterlimit:2;">
    <path d="M55.833,28C55.833,12.639 43.361,0.167 28,0.167C12.639,0.167 0.167,12.639 0.167,28C0.167,32.985 1.506,37.879 4.044,42.169L0.167,55.833L13.831,51.956C18.121,54.494 23.015,55.833 28,55.833C43.361,55.833 55.833,43.361 55.833,28ZM11.548,24.989C13.21,24.989 14.559,26.338 14.559,28C14.559,29.662 13.21,31.011 11.548,31.011C9.886,31.011 8.537,29.662 8.537,28C8.537,26.338 9.886,24.989 11.548,24.989ZM28,24.989C29.662,24.989 31.011,26.338 31.011,28C31.011,29.662 29.662,31.011 28,31.011C26.338,31.011 24.989,29.662 24.989,28C24.989,26.338 26.338,24.989 28,24.989ZM44.452,24.989C46.114,24.989 47.463,26.338 47.463,28C47.463,29.662 46.114,31.011 44.452,31.011C42.79,31.011 41.441,29.662 41.441,28C41.441,26.338 42.79,24.989 44.452,24.989Z" style="fill:rgb(155,237,235);"/>
</svg>
