<?xml version="1.0" encoding="UTF-8" standalone="no"?>
<!DOCTYPE svg PUBLIC "-//W3C//DTD SVG 1.1//EN" "http://www.w3.org/Graphics/SVG/1.1/DTD/svg11.dtd">
<svg width="100%" height="100%" viewBox="0 0 512 512" version="1.1" xmlns="http://www.w3.org/2000/svg" xmlns:xlink="http://www.w3.org/1999/xlink" xml:space="preserve" xmlns:serif="http://www.serif.com/" style="fill-rule:evenodd;clip-rule:evenodd;stroke-linejoin:round;stroke-miterlimit:2;">
    <g>
        <g>
            <path d="M117.333,10.667L53.333,10.667C23.936,10.667 0,34.603 0,64L0,234.667C0,264.064 23.936,288 53.333,288L149.333,288L149.333,21.461C140.395,14.72 129.344,10.667 117.333,10.667Z" style="fill:rgb(43,255,234);fill-rule:nonzero;"/>
        </g>
    </g>
    <g>
        <g>
            <path d="M512,208C512,189.504 501.419,173.269 485.653,165.333C488.938,158.784 490.666,151.53 490.666,144C490.666,125.483 480.063,109.248 464.298,101.312C469.183,91.584 470.613,80.384 468.159,69.269C463.381,47.659 443.051,32 419.819,32L224,32C210.005,32 188.032,36.416 170.667,44.608L170.667,273.259L173.227,274.56L234.667,407.68L234.667,480C234.667,483.243 236.139,486.315 238.656,488.341C239.339,488.853 255.168,501.333 277.333,501.333C302.016,501.333 341.333,462.272 341.333,416C341.333,386.816 330.88,350.485 324.352,330.667L456.128,330.667C484.843,330.667 509.269,309.419 511.765,282.304C513.152,267.093 508.074,252.48 498.112,241.579C506.923,232.768 512,220.821 512,208Z" style="fill:rgb(43,255,234);fill-rule:nonzero;"/>
        </g>
    </g>
</svg>
