<?xml version="1.0" encoding="UTF-8" standalone="no"?>
<!DOCTYPE svg PUBLIC "-//W3C//DTD SVG 1.1//EN" "http://www.w3.org/Graphics/SVG/1.1/DTD/svg11.dtd">
<svg width="100%" height="100%" viewBox="0 0 256 256" version="1.1" xmlns="http://www.w3.org/2000/svg" xmlns:xlink="http://www.w3.org/1999/xlink" xml:space="preserve" xmlns:serif="http://www.serif.com/" style="fill-rule:evenodd;clip-rule:evenodd;stroke-linejoin:round;stroke-miterlimit:2;">
    <g transform="matrix(8.6644,0,0,8.6644,-2094.02,-22358.1)">
        <g id="edit-icon">
            <path d="M266.143,2595.37C266.634,2595.37 267.033,2595.77 267.033,2596.26L267.033,2606.97C267.033,2608.65 265.675,2610.01 264,2610.01L244.714,2610.01C243.04,2610.01 241.682,2608.65 241.682,2606.97L241.682,2585.54C241.682,2583.87 243.04,2582.51 244.714,2582.51L257.571,2582.51C258.063,2582.51 258.461,2582.91 258.461,2583.4C258.461,2583.89 258.063,2584.29 257.571,2584.29L244.714,2584.29C244.022,2584.29 243.461,2584.85 243.461,2585.54L243.461,2606.97C243.461,2607.66 244.022,2608.22 244.714,2608.22L264,2608.22C264.692,2608.22 265.253,2607.66 265.253,2606.97L265.253,2596.26C265.253,2595.77 265.651,2595.37 266.143,2595.37Z" style="fill:white;fill-rule:nonzero;"/>
            <path d="M270.107,2581.58C271.602,2583.08 271.602,2585.5 270.106,2587L255.993,2601.11C255.906,2601.2 255.799,2601.26 255.681,2601.3L249.253,2603.45C249.172,2603.47 249.086,2603.49 249,2603.49C248.915,2603.49 248.83,2603.47 248.748,2603.45C248.33,2603.3 248.103,2602.85 248.243,2602.43L250.385,2596.01C250.425,2595.89 250.491,2595.78 250.579,2595.69L264.691,2581.58C265.407,2580.86 266.382,2580.46 267.398,2580.46C268.414,2580.46 269.388,2580.86 270.107,2581.58ZM268.976,2585.87C269.396,2585.45 269.631,2584.88 269.629,2584.29C269.627,2583.7 269.393,2583.14 268.977,2582.72C268.106,2581.85 266.693,2581.85 265.821,2582.72L251.887,2596.64C251.857,2596.67 251.834,2596.71 251.821,2596.75L250.436,2600.91C250.403,2601 250.429,2601.11 250.502,2601.18C250.574,2601.26 250.682,2601.28 250.78,2601.25L254.942,2599.86C254.982,2599.85 255.018,2599.83 255.048,2599.8L268.976,2585.87Z" style="fill:white;"/>
        </g>
    </g>
</svg>
