<?xml version="1.0" encoding="UTF-8" standalone="no"?>
<!DOCTYPE svg PUBLIC "-//W3C//DTD SVG 1.1//EN" "http://www.w3.org/Graphics/SVG/1.1/DTD/svg11.dtd">
<svg width="100%" height="100%" viewBox="0 0 512 512" version="1.1" xmlns="http://www.w3.org/2000/svg" xmlns:xlink="http://www.w3.org/1999/xlink" xml:space="preserve" xmlns:serif="http://www.serif.com/" style="fill-rule:evenodd;clip-rule:evenodd;stroke-linejoin:round;stroke-miterlimit:2;">
    <g>
        <g>
            <path d="M53.333,224C23.936,224 0,247.936 0,277.333L0,448C0,477.397 23.936,501.333 53.333,501.333L117.333,501.333C129.344,501.333 140.394,497.28 149.333,490.538L149.333,224L53.333,224Z" style="fill:rgb(43,255,234);fill-rule:nonzero;"/>
        </g>
    </g>
    <g>
        <g>
            <path d="M512,304C512,291.179 506.923,279.232 498.112,270.421C508.075,259.52 513.152,244.906 511.765,229.696C509.269,202.581 484.842,181.333 456.128,181.333L324.352,181.333C330.88,161.514 341.333,125.184 341.333,96C341.333,49.728 302.016,10.667 277.333,10.667C255.168,10.667 239.338,23.147 238.656,23.659C236.139,25.686 234.667,28.758 234.667,32L234.667,104.341L173.227,237.44L170.667,238.741L170.667,467.392C188.032,475.584 210.005,480 224,480L419.819,480C443.051,480 463.382,464.341 468.16,442.731C470.613,431.616 469.184,420.416 464.299,410.688C480.064,402.752 490.667,386.517 490.667,368C490.667,360.448 488.939,353.216 485.654,346.667C501.419,338.731 512,322.496 512,304Z" style="fill:rgb(43,255,234);fill-rule:nonzero;"/>
        </g>
    </g>
</svg>
